<svg width="1314" height="120" viewBox="0 0 1314 120" fill="none" xmlns="http://www.w3.org/2000/svg">
<path fill-rule="evenodd" clip-rule="evenodd" d="M31.688 90.7841C26.4025 90.8699 21.1515 89.9186 16.232 87.9842C11.8963 86.2851 8.11639 83.4176 5.31195 79.7001C2.52219 75.8553 1.01227 71.2304 0.995972 66.4802H21.384C21.5029 69.0064 22.5851 71.3911 24.408 73.1442C26.2776 74.731 28.678 75.5526 31.128 75.4442C33.5261 75.5779 35.8977 74.8862 37.848 73.4842C39.4933 72.1737 40.4097 70.1533 40.312 68.0522C40.3658 66.2425 39.6542 64.494 38.352 63.2361C36.9517 61.9054 35.3194 60.8425 33.5359 60.1002C30.8832 59.0174 28.1723 58.0826 25.416 57.3002C21.16 56.0476 17.0043 54.4765 12.9841 52.6002C9.7073 50.9757 6.86581 48.5923 4.69595 45.6482C2.38129 42.5868 1.22397 38.5922 1.22397 33.6642C1.22397 26.3468 3.87463 20.6161 9.17596 16.4721C14.4773 12.3282 21.384 10.2561 29.896 10.2561C38.5573 10.2561 45.5386 12.3282 50.84 16.4721C56.1413 20.6161 58.9786 26.3828 59.352 33.7722H38.632C38.5937 31.4674 37.5753 29.2881 35.8319 27.7802C33.9672 26.2749 31.6183 25.5 29.224 25.6002C27.1932 25.5039 25.1985 26.1621 23.624 27.4482C22.1497 28.8105 21.368 30.7648 21.496 32.7682C21.4728 35.2641 22.8597 37.5596 25.0799 38.7001C28.6452 40.6123 32.3985 42.1512 36.2799 43.2921C40.5068 44.6689 44.6407 46.3163 48.6559 48.2242C51.8875 49.8402 54.7041 52.1778 56.888 55.0562C59.2026 58.0428 60.36 61.8881 60.36 66.5922C60.4072 70.9037 59.2221 75.1392 56.944 78.8001C54.5255 82.5848 51.0905 85.6123 47.032 87.5362C42.2411 89.8022 36.9861 90.9146 31.688 90.7841ZM100.568 90.9001C94.8207 90.9901 89.1421 89.6426 84.0479 86.9802C79.2141 84.4222 75.2116 80.5364 72.5119 75.7802C69.6239 70.5796 68.1741 64.7032 68.312 58.7562C68.1882 52.8214 69.6579 46.962 72.5679 41.7882C75.2967 37.0003 79.3384 33.0932 84.216 30.5282C89.3316 27.8696 95.0273 26.5226 100.792 26.6082C106.557 26.5226 112.252 27.8695 117.368 30.5282C122.245 33.0922 126.287 36.9978 129.016 41.7841C131.926 46.958 133.396 52.8174 133.272 58.7522C133.396 64.6938 131.905 70.558 128.96 75.72C126.187 80.513 122.107 84.4173 117.196 86.9762C112.06 89.6315 106.349 90.9793 100.568 90.9001ZM100.568 74.3242C104.117 74.3715 107.518 72.9051 109.92 70.2921C112.496 67.6042 113.784 63.7588 113.784 58.7562C113.784 53.7535 112.533 49.9081 110.032 47.2202C107.683 44.5987 104.311 43.1273 100.792 43.1881C97.2615 43.0994 93.8671 44.5506 91.492 47.1642C89.0253 49.8148 87.792 53.6788 87.792 58.7562C87.792 63.7562 89.0053 67.6015 91.432 70.2921C93.7296 72.9227 97.0761 74.3982 100.568 74.3202V74.3242ZM231.048 27.5002L191.848 119.676H171.24L185.576 87.8722L160.152 27.5002H181.544L195.996 66.5922L210.328 27.5002H231.048ZM266.44 90.9001C260.693 90.9901 255.014 89.6426 249.92 86.9802C245.086 84.4222 241.084 80.5363 238.384 75.7802C235.496 70.5796 234.046 64.7032 234.184 58.7562C234.06 52.8214 235.53 46.962 238.44 41.7882C241.169 37.0018 245.211 33.0961 250.088 30.5321C255.204 27.8736 260.899 26.5266 266.664 26.6122C272.429 26.5266 278.124 27.8736 283.24 30.5321C288.117 33.0962 292.159 37.0018 294.888 41.7881C297.798 46.9619 299.268 52.8214 299.144 58.7561C299.268 64.6978 297.777 70.562 294.832 75.724C292.06 80.5164 287.981 84.4207 283.072 86.9802C277.935 89.6348 272.222 90.9812 266.44 90.9001H266.44ZM266.44 74.3242C269.989 74.3715 273.39 72.9051 275.792 70.2921C278.368 67.6042 279.656 63.7588 279.656 58.7562C279.656 53.7535 278.405 49.9081 275.904 47.2202C273.555 44.5987 270.183 43.1273 266.664 43.1881C263.134 43.0994 259.739 44.5506 257.364 47.1642C254.897 49.8148 253.664 53.6788 253.664 58.7562C253.664 63.7562 254.877 67.6015 257.304 70.2921C259.602 72.9227 262.948 74.3981 266.44 74.3202V74.3242ZM371.048 27.5002V90.0002H351.896V81.4882C349.858 84.3324 347.143 86.623 343.996 88.1522C340.572 89.8552 336.792 90.719 332.968 90.6721C328.539 90.7617 324.168 89.6592 320.312 87.4802C316.619 85.3152 313.655 82.0981 311.8 78.2401C309.694 73.8002 308.659 68.9286 308.776 64.0161V27.5002H327.816V61.4402C327.816 65.6215 328.899 68.8695 331.064 71.1841C333.34 73.5454 336.524 74.8107 339.8 74.6562C343.111 74.825 346.335 73.56 348.648 71.1841C350.813 68.8695 351.896 65.6215 351.896 61.4402V27.5002H371.048ZM404.76 58.6402C404.633 52.7957 405.88 47.003 408.4 41.7282C410.59 37.1405 414.025 33.2599 418.312 30.5281C422.508 27.9105 427.367 26.5501 432.312 26.6082C436.215 26.5612 440.074 27.4442 443.568 29.1841C446.8 30.7572 449.561 33.1518 451.576 36.1281V7.12015H470.728V90.0002H451.576V81.0402C449.722 84.0857 447.068 86.5648 443.904 88.2082C440.327 90.0624 436.34 90.9881 432.312 90.9002C427.359 90.9568 422.496 89.5757 418.312 86.9242C414.018 84.1483 410.584 80.2293 408.396 75.6082C405.881 70.3118 404.636 64.5019 404.76 58.6401V58.6402ZM451.576 58.7522C451.576 53.9735 450.251 50.2028 447.6 47.4402C445.106 44.7447 441.583 43.2378 437.912 43.2961C434.251 43.2337 430.733 44.718 428.224 47.3842C425.573 50.1095 424.248 53.8615 424.248 58.6402C424.248 63.4188 425.573 67.2082 428.224 70.0081C430.701 72.733 434.23 74.2626 437.912 74.2082C441.583 74.2665 445.106 72.7596 447.6 70.0641C450.251 67.3015 451.576 63.5308 451.576 58.7522ZM513.064 90.9001C507.317 90.9901 501.638 89.6426 496.544 86.9801C491.71 84.4222 487.708 80.5363 485.008 75.7802C482.12 70.5796 480.67 64.7032 480.808 58.7561C480.684 52.8213 482.154 46.9619 485.064 41.7881C487.793 37.0017 491.835 33.0961 496.712 30.5322C501.828 27.8736 507.523 26.5266 513.288 26.6122C519.053 26.5266 524.748 27.8735 529.864 30.5321C534.741 33.0961 538.783 37.0018 541.512 41.7881C544.422 46.9619 545.892 52.8214 545.768 58.7562C545.891 64.6967 544.401 70.5593 541.456 75.7201C538.684 80.5125 534.605 84.4167 529.696 86.9762C524.559 89.6322 518.846 90.98 513.064 90.9001ZM513.064 74.3242C516.613 74.3715 520.014 72.9051 522.416 70.2921C524.992 67.6042 526.28 63.7588 526.28 58.7562C526.28 53.7535 525.029 49.9081 522.528 47.2202C520.179 44.5987 516.807 43.1273 513.288 43.1881C509.758 43.0994 506.363 44.5506 503.988 47.1642C501.527 49.8122 500.296 53.6748 500.296 58.7522C500.296 63.7522 501.509 67.5975 503.936 70.2881C506.231 72.918 509.574 74.3947 513.064 74.3202V74.3242ZM594.04 26.8362C601.357 26.8362 607.2 29.2068 611.568 33.9482C615.936 38.6895 618.12 45.2041 618.12 53.4922V90.0002H599.08V56.0641C599.08 51.8828 597.997 48.6348 595.832 46.3202C593.556 43.9589 590.372 42.6936 587.096 42.8481C583.82 42.6936 580.636 43.9589 578.36 46.3202C576.195 48.6348 575.112 51.8828 575.112 56.0641V90.0002H555.96V27.5002H575.112V35.7881C577.121 32.9684 579.82 30.7122 582.952 29.2361C586.414 27.593 590.208 26.7704 594.04 26.8322V26.8362ZM644.776 0.400146L643.32 25.1522H630.44L628.984 0.400146H644.776ZM691.032 73.7602V90.0002H681.288C674.344 90.0002 668.931 88.3001 665.048 84.9002C661.165 81.5002 659.224 75.9562 659.224 68.2682V43.4081H651.608V27.5002H659.224V12.2722H678.376V27.5002H690.92V43.4001H678.376V68.5002C678.235 69.9735 678.724 71.4377 679.72 72.5321C680.616 73.3535 682.109 73.7642 684.2 73.7642L691.032 73.7602ZM744.568 7.12015V90.0001H725.416V7.12015H744.568ZM786.904 90.9001C781.157 90.9901 775.478 89.6426 770.384 86.9801C765.55 84.4222 761.548 80.5364 758.848 75.7802C755.96 70.5796 754.51 64.7032 754.648 58.7562C754.524 52.8212 755.994 46.9618 758.904 41.788C761.633 37.0017 765.675 33.0961 770.552 30.5322C775.668 27.8736 781.363 26.5266 787.128 26.6122C792.893 26.5266 798.588 27.8736 803.704 30.5321C808.581 33.0962 812.623 37.0018 815.352 41.7881C818.262 46.962 819.732 52.8214 819.608 58.7562C819.731 64.6967 818.241 70.5594 815.296 75.7202C812.524 80.5125 808.445 84.4167 803.536 86.9762C798.399 89.6322 792.686 90.98 786.904 90.9001ZM786.904 74.3242C790.453 74.3715 793.854 72.9051 796.256 70.2921C798.832 67.6042 800.12 63.7588 800.12 58.7562C800.12 53.7535 798.869 49.9081 796.368 47.2202C794.019 44.5987 790.647 43.1273 787.128 43.1881C783.598 43.0994 780.203 44.5506 777.828 47.1642C775.361 49.8148 774.128 53.6788 774.128 58.7562C774.128 63.7562 775.341 67.6015 777.768 70.2921C780.066 72.9227 783.412 74.3981 786.904 74.3202V74.3242ZM855.224 90.9002C850.229 90.9895 845.27 90.0359 840.664 88.1002C836.698 86.4559 833.225 83.8128 830.584 80.4282C828.156 77.2762 826.715 73.4771 826.44 69.5081H845.368C845.561 71.6196 846.665 73.5418 848.392 74.7722C850.311 76.1563 852.635 76.8653 855 76.7881C856.948 76.9065 858.885 76.4173 860.544 75.3882C861.778 74.5908 862.517 73.2172 862.504 71.7481C862.511 69.9624 861.388 68.3675 859.704 67.7722C856.766 66.5672 853.731 65.6118 850.632 64.9162C846.828 64.0736 843.085 62.9711 839.432 61.6162C836.441 60.4558 833.785 58.5699 831.704 56.1281C829.539 53.6268 828.456 50.2482 828.456 45.9922C828.428 42.5002 829.463 39.0822 831.424 36.1923C833.609 33.0742 836.64 30.6455 840.16 29.1922C844.501 27.3781 849.176 26.5004 853.88 26.6161C861.72 26.6161 867.899 28.5575 872.416 32.4402C876.95 36.3583 879.747 41.9127 880.196 47.8882H862.496C862.272 45.8576 861.244 44.0017 859.64 42.7361C857.81 41.3973 855.577 40.7267 853.312 40.8362C851.503 40.7213 849.702 41.1714 848.16 42.1241C846.999 42.9165 846.323 44.2472 846.368 45.6521C846.378 47.4628 847.519 49.0741 849.224 49.6841C852.092 50.8801 855.074 51.7807 858.124 52.3721C861.967 53.317 865.749 54.4952 869.448 55.9002C872.428 57.1064 875.063 59.03 877.12 61.5002C879.32 64.0761 880.459 67.5295 880.536 71.8601C880.582 75.3719 879.503 78.8062 877.456 81.6602C875.194 84.6974 872.13 87.0439 868.608 88.4362C864.36 90.1554 859.806 90.9937 855.224 90.9002ZM951.208 57.7481C951.203 59.6204 951.091 61.4902 950.872 63.3489L907.528 63.3481C907.827 67.2308 909.077 70.1975 911.28 72.2481C913.478 74.3001 916.394 75.4062 919.4 75.3282C924.179 75.3282 927.501 73.3122 929.368 69.2802H949.752C948.723 73.354 946.79 77.1439 944.096 80.3682C941.317 83.696 937.811 86.3413 933.848 88.1002C929.511 90.0146 924.812 90.9697 920.072 90.9001C914.377 91.004 908.749 89.6549 903.72 86.9802C898.982 84.408 895.092 80.5177 892.52 75.7802C889.739 70.545 888.35 64.6826 888.488 58.7562C888.351 52.8362 889.719 46.9785 892.464 41.732C895.004 36.9898 898.879 33.096 903.608 30.5322C908.674 27.8487 914.34 26.4996 920.072 26.6122C925.681 26.5067 931.226 27.8149 936.196 30.4162C940.845 32.8983 944.677 36.671 947.232 41.2802C949.968 46.3284 951.339 52.0036 951.208 57.7441L951.208 57.7481ZM931.608 52.7082C931.737 49.7202 930.5 46.8356 928.248 44.8682C925.906 42.8899 922.912 41.8521 919.848 41.9561C916.89 41.8679 914.003 42.8637 911.728 44.7562C909.427 46.8083 907.97 49.6423 907.64 52.7082H931.608ZM1019.86 73.7642V90.0002H1010.12C1003.18 90.0002 997.763 88.3001 993.88 84.9002C989.997 81.5002 988.056 75.9575 988.056 68.2722V43.4081H980.44V27.5002H988.056V12.2722H1007.21V27.5002H1019.75V43.4001H1007.21V68.5002C1007.07 69.9735 1007.56 71.4377 1008.55 72.5321C1009.45 73.3535 1010.94 73.7642 1013.03 73.7642H1019.86ZM1068.92 26.8362C1076.09 26.8362 1081.84 29.2068 1086.17 33.9482C1090.5 38.6895 1092.67 45.2041 1092.67 53.4922V90.0001H1073.63V56.0641C1073.63 51.8828 1072.55 48.6348 1070.38 46.3202C1068.1 43.959 1064.92 42.6936 1061.64 42.8481C1058.37 42.6936 1055.18 43.9589 1052.91 46.3202C1050.74 48.6348 1049.66 51.8828 1049.66 56.0641V90.0001H1030.51V7.12015H1049.66V35.9001C1051.7 33.0533 1054.44 30.7781 1057.61 29.2921C1061.14 27.6135 1065.01 26.7717 1068.92 26.8322V26.8362ZM1164.9 57.7481C1164.9 59.6199 1164.79 61.4896 1164.57 63.3483L1121.22 63.3481C1121.52 67.2308 1122.77 70.1975 1124.98 72.2481C1127.17 74.3001 1130.09 75.4062 1133.1 75.3282C1137.87 75.3282 1141.2 73.3122 1143.06 69.2802H1163.45C1162.42 73.3537 1160.49 77.1435 1157.8 80.3682C1155.02 83.6965 1151.51 86.3418 1147.54 88.1002C1143.21 90.0146 1138.51 90.9697 1133.77 90.9001C1128.07 91.0041 1122.45 89.6549 1117.42 86.9802C1112.68 84.4081 1108.79 80.5177 1106.22 75.7802C1103.43 70.5449 1102.05 64.6826 1102.18 58.7562C1102.05 52.8365 1103.41 46.9788 1106.16 41.7323C1108.7 36.9899 1112.57 33.096 1117.3 30.5321C1122.37 27.8487 1128.04 26.4996 1133.77 26.6122C1139.38 26.5073 1144.93 27.8169 1149.9 30.4201C1154.54 32.9029 1158.37 36.6755 1160.93 41.2841C1163.66 46.3312 1165.03 52.0049 1164.9 57.7442V57.7481ZM1145.3 52.7082C1145.43 49.7202 1144.2 46.8356 1141.94 44.8682C1139.6 42.8899 1136.61 41.8521 1133.54 41.9561C1130.59 41.868 1127.7 42.8638 1125.42 44.7562C1123.12 46.8084 1121.67 49.6424 1121.34 52.7082H1145.3ZM1254.73 26.8362C1262.49 26.8362 1268.67 29.1881 1273.26 33.8922C1277.86 38.5962 1280.15 45.1295 1280.15 53.4922V90.0002H1261.11V56.0641C1261.11 52.0321 1260.05 48.9148 1257.92 46.7122C1255.79 44.5095 1252.86 43.4095 1249.13 43.4121C1245.39 43.4121 1242.46 44.5121 1240.34 46.7122C1238.21 48.9121 1237.14 52.0295 1237.14 56.0641V90.0002H1218.1V56.0641C1218.1 52.0321 1217.04 48.9148 1214.91 46.7122C1212.78 44.5095 1209.85 43.4095 1206.12 43.4121C1202.39 43.4121 1199.46 44.5121 1197.33 46.7122C1195.2 48.9121 1194.14 52.0295 1194.14 56.0641V90.0002H1174.98V27.5002H1194.14V35.3401C1196.13 32.6811 1198.75 30.5478 1201.75 29.1241C1205.07 27.5508 1208.72 26.7637 1212.39 26.8242C1216.78 26.7475 1221.12 27.7881 1224.99 29.8481C1228.65 31.8297 1231.67 34.8236 1233.67 38.4722C1235.89 34.9891 1238.93 32.1044 1242.52 30.0722C1246.23 27.9172 1250.44 26.7982 1254.73 26.8322L1254.73 26.8362ZM1302.55 90.9001C1299.53 91.0226 1296.57 89.9575 1294.32 87.9322C1292.24 86.0664 1291.08 83.389 1291.13 80.5962C1291.07 77.7542 1292.23 75.0232 1294.32 73.0962C1296.56 71.0388 1299.52 69.9514 1302.55 70.0721C1305.55 69.9648 1308.47 71.0524 1310.67 73.0962C1312.76 75.0233 1313.92 77.7542 1313.86 80.5962C1313.92 83.389 1312.75 86.0663 1310.67 87.9321C1308.46 89.9441 1305.54 91.0094 1302.55 90.9001Z" fill="url(#paint0_linear_0_32)"/>
<defs>
<linearGradient id="paint0_linear_0_32" x1="25.9405" y1="57.1755" x2="1275.79" y2="57.1755" gradientUnits="userSpaceOnUse">
<stop stop-color="#FE6783"/>
<stop offset="1" stop-color="#FFBF84"/>
</linearGradient>
</defs>
</svg>
